<?xml version="1.0" encoding="UTF-8" standalone="no"?>
<!DOCTYPE svg PUBLIC "-//W3C//DTD SVG 1.1//EN"
 "http://www.w3.org/Graphics/SVG/1.1/DTD/svg11.dtd">
<!-- Generated by graphviz version 2.40.1 (20161225.0304)
 -->
<!-- Title: flowchart Pages: 1 -->
<svg width="498pt" height="511pt"
 viewBox="0.00 0.00 498.00 510.60" xmlns="http://www.w3.org/2000/svg" xmlns:xlink="http://www.w3.org/1999/xlink">
<g id="graph0" class="graph" transform="scale(1 1) rotate(0) translate(4 506.6)">
<title>flowchart</title>
<polygon fill="#ffffff" stroke="transparent" points="-4,4 -4,-506.6 494,-506.6 494,4 -4,4"/>
<g id="clust1" class="cluster">
<title>cluster_explore</title>
<polygon fill="#f5f5f5" stroke="#696969" points="8,-8 8,-314.6 482,-314.6 482,-8 8,-8"/>
<text text-anchor="start" x="138.4187" y="-298" font-family="Helvetica,sans-Serif" font-weight="bold" font-size="14.00" fill="#000000">Data Exploration and Visualisation</text>
</g>
<g id="clust2" class="cluster">
<title>cluster_statistics</title>
<polygon fill="#fff8dc" stroke="#daa520" points="177,-181.4 177,-269.8 462,-269.8 462,-181.4 177,-181.4"/>
<text text-anchor="start" x="269.829" y="-255" font-family="Helvetica,sans-Serif" font-weight="bold" font-size="12.00" fill="#000000">Statistical Analysis</text>
</g>
<g id="clust3" class="cluster">
<title>cluster_temporal</title>
<polygon fill="#f0fff0" stroke="#228b22" points="218,-85 218,-173.4 462,-173.4 462,-85 218,-85"/>
<text text-anchor="start" x="290.6644" y="-158.6" font-family="Helvetica,sans-Serif" font-weight="bold" font-size="12.00" fill="#000000">Temporal Analysis</text>
</g>
<g id="clust4" class="cluster">
<title>cluster_influence</title>
<polygon fill="#f0f8ff" stroke="#4169e1" points="28,-85 28,-173.4 198,-173.4 198,-85 28,-85"/>
<text text-anchor="start" x="64.6544" y="-158.6" font-family="Helvetica,sans-Serif" font-weight="bold" font-size="12.00" fill="#000000">Influence Analysis</text>
</g>
<!-- input -->
<g id="node1" class="node">
<title>input</title>
<polygon fill="#ffe4b5" stroke="#ffa500" stroke-width="1.5" points="211.1862,-502.6 92.8138,-502.6 92.8138,-466.6 211.1862,-466.6 211.1862,-502.6"/>
<text text-anchor="middle" x="152" y="-480.4" font-family="Helvetica,sans-Serif" font-size="14.00" fill="#000000">MC1_graph.json</text>
</g>
<!-- read -->
<g id="node2" class="node">
<title>read</title>
<polygon fill="#e6e6fa" stroke="#9370db" points="193.6906,-430.6 110.3094,-430.6 110.3094,-394.6 193.6906,-394.6 193.6906,-430.6"/>
<text text-anchor="middle" x="152" y="-408.4" font-family="Helvetica,sans-Serif" font-size="14.00" fill="#000000">Read input</text>
</g>
<!-- input&#45;&gt;read -->
<g id="edge1" class="edge">
<title>input&#45;&gt;read</title>
<path fill="none" stroke="#000000" d="M152,-466.4314C152,-458.731 152,-449.5743 152,-441.0166"/>
<polygon fill="#000000" stroke="#000000" points="155.5001,-441.0132 152,-431.0133 148.5001,-441.0133 155.5001,-441.0132"/>
</g>
<!-- clean -->
<g id="node3" class="node">
<title>clean</title>
<polygon fill="#e6e6fa" stroke="#9370db" points="223.5742,-358.6 80.4258,-358.6 80.4258,-322.6 223.5742,-322.6 223.5742,-358.6"/>
<text text-anchor="middle" x="152" y="-336.4" font-family="Helvetica,sans-Serif" font-size="14.00" fill="#000000">Data Pre&#45;processing</text>
</g>
<!-- read&#45;&gt;clean -->
<g id="edge2" class="edge">
<title>read&#45;&gt;clean</title>
<path fill="none" stroke="#000000" d="M152,-394.4314C152,-386.731 152,-377.5743 152,-369.0166"/>
<polygon fill="#000000" stroke="#000000" points="155.5001,-369.0132 152,-359.0133 148.5001,-369.0133 155.5001,-369.0132"/>
</g>
<!-- plot_net -->
<g id="node4" class="node">
<title>plot_net</title>
<polygon fill="#add8e6" stroke="#4682b4" points="182.6945,-136 43.3055,-136 43.3055,-100 182.6945,-100 182.6945,-136"/>
<text text-anchor="middle" x="113" y="-113.8" font-family="Helvetica,sans-Serif" font-size="14.00" fill="#000000">Plot network graphs</text>
</g>
<!-- clean&#45;&gt;plot_net -->
<g id="edge3" class="edge">
<title>clean&#45;&gt;plot_net</title>
<path fill="none" stroke="#4682b4" d="M106.5784,-322.4399C104.0464,-320.1216 101.8042,-317.5192 100,-314.6 67.5891,-262.1581 87.2566,-186.1146 101.7389,-145.6928"/>
<polygon fill="#4682b4" stroke="#4682b4" points="105.0568,-146.8122 105.2742,-136.2196 98.4987,-144.3646 105.0568,-146.8122"/>
</g>
<!-- plot_bar -->
<g id="node5" class="node">
<title>plot_bar</title>
<polygon fill="#98fb98" stroke="#2e8b57" points="328.8498,-136 233.1502,-136 233.1502,-100 328.8498,-100 328.8498,-136"/>
<text text-anchor="middle" x="281" y="-113.8" font-family="Helvetica,sans-Serif" font-size="14.00" fill="#000000">Plot barchart</text>
</g>
<!-- clean&#45;&gt;plot_bar -->
<g id="edge4" class="edge">
<title>clean&#45;&gt;plot_bar</title>
<path fill="none" stroke="#2e8b57" d="M140.8701,-322.5966C139.691,-319.9932 138.6768,-317.2844 138,-314.6 123.5275,-257.1963 98.8213,-225.7809 138,-181.4 147.4856,-170.6549 188.6265,-178.5558 202,-173.4 220.5536,-166.2471 238.8864,-153.8165 253.2141,-142.5403"/>
<polygon fill="#2e8b57" stroke="#2e8b57" points="255.6061,-145.1065 261.1586,-136.0831 251.191,-139.6744 255.6061,-145.1065"/>
</g>
<!-- plot_line -->
<g id="node6" class="node">
<title>plot_line</title>
<polygon fill="#98fb98" stroke="#2e8b57" points="447.2926,-136 346.7074,-136 346.7074,-100 447.2926,-100 447.2926,-136"/>
<text text-anchor="middle" x="397" y="-113.8" font-family="Helvetica,sans-Serif" font-size="14.00" fill="#000000">Plot line chart</text>
</g>
<!-- clean&#45;&gt;plot_line -->
<g id="edge5" class="edge">
<title>clean&#45;&gt;plot_line</title>
<path fill="none" stroke="#2e8b57" d="M147.8973,-322.5222C141.4969,-289.0759 133.6188,-217.6518 173,-181.4 186.5043,-168.9688 321.1026,-180.5679 338,-173.4 353.0291,-167.0247 366.5692,-155.0247 376.8762,-143.8188"/>
<polygon fill="#2e8b57" stroke="#2e8b57" points="379.5305,-146.1004 383.4738,-136.2667 374.2588,-141.495 379.5305,-146.1004"/>
</g>
<!-- bayesian -->
<g id="node7" class="node">
<title>bayesian</title>
<polygon fill="#ffdab9" stroke="#cd853f" points="446.5771,-232.4 317.4229,-232.4 317.4229,-196.4 446.5771,-196.4 446.5771,-232.4"/>
<text text-anchor="middle" x="382" y="-210.2" font-family="Helvetica,sans-Serif" font-size="14.00" fill="#000000">Bayesian Surprise</text>
</g>
<!-- clean&#45;&gt;bayesian -->
<g id="edge6" class="edge">
<title>clean&#45;&gt;bayesian</title>
<path fill="none" stroke="#cd853f" d="M223.8058,-334.0098C258.0285,-329.8182 294.5968,-323.4831 309,-314.6 337.0152,-297.3217 357.61,-264.929 369.6524,-241.6461"/>
<polygon fill="#cd853f" stroke="#cd853f" points="372.8291,-243.1181 374.1399,-232.6046 366.559,-240.006 372.8291,-243.1181"/>
</g>
<!-- entropy -->
<g id="node8" class="node">
<title>entropy</title>
<polygon fill="#ffdab9" stroke="#cd853f" points="299.5252,-232.4 192.4748,-232.4 192.4748,-196.4 299.5252,-196.4 299.5252,-232.4"/>
<text text-anchor="middle" x="246" y="-210.2" font-family="Helvetica,sans-Serif" font-size="14.00" fill="#000000">Genre Entropy</text>
</g>
<!-- clean&#45;&gt;entropy -->
<g id="edge7" class="edge">
<title>clean&#45;&gt;entropy</title>
<path fill="none" stroke="#cd853f" d="M165.4679,-322.5186C181.4526,-301.0583 208.2347,-265.1019 226.488,-240.5959"/>
<polygon fill="#cd853f" stroke="#cd853f" points="229.3904,-242.5584 232.5571,-232.4478 223.7766,-238.3769 229.3904,-242.5584"/>
</g>
<!-- shiny -->
<g id="node9" class="node">
<title>shiny</title>
<ellipse fill="#ffb6c1" stroke="#ff69b4" cx="281" cy="-46" rx="55.0903" ry="18"/>
<text text-anchor="middle" x="281" y="-41.8" font-family="Helvetica,sans-Serif" font-size="14.00" fill="#000000">Shiny App</text>
</g>
<!-- plot_net&#45;&gt;shiny -->
<g id="edge10" class="edge">
<title>plot_net&#45;&gt;shiny</title>
<path fill="none" stroke="#4682b4" d="M155.3935,-99.8314C180.648,-89.008 212.6152,-75.3078 237.9797,-64.4373"/>
<polygon fill="#4682b4" stroke="#4682b4" points="239.5371,-67.5778 247.3498,-60.4215 236.7796,-61.1438 239.5371,-67.5778"/>
</g>
<!-- plot_bar&#45;&gt;shiny -->
<g id="edge11" class="edge">
<title>plot_bar&#45;&gt;shiny</title>
<path fill="none" stroke="#2e8b57" d="M281,-99.8314C281,-92.131 281,-82.9743 281,-74.4166"/>
<polygon fill="#2e8b57" stroke="#2e8b57" points="284.5001,-74.4132 281,-64.4133 277.5001,-74.4133 284.5001,-74.4132"/>
</g>
<!-- plot_line&#45;&gt;shiny -->
<g id="edge12" class="edge">
<title>plot_line&#45;&gt;shiny</title>
<path fill="none" stroke="#2e8b57" d="M367.7283,-99.8314C351.8718,-89.9894 332.1829,-77.7687 315.5743,-67.4599"/>
<polygon fill="#2e8b57" stroke="#2e8b57" points="317.0504,-64.2567 306.7082,-61.9568 313.3588,-70.2042 317.0504,-64.2567"/>
</g>
<!-- bayesian&#45;&gt;plot_line -->
<g id="edge8" class="edge">
<title>bayesian&#45;&gt;plot_line</title>
<path fill="none" stroke="#cd853f" d="M384.8214,-196.2679C387.0213,-182.13 390.1153,-162.2456 392.6342,-146.0575"/>
<polygon fill="#cd853f" stroke="#cd853f" points="396.1121,-146.4701 394.1913,-136.0508 389.1953,-145.3937 396.1121,-146.4701"/>
</g>
<!-- entropy&#45;&gt;plot_line -->
<g id="edge9" class="edge">
<title>entropy&#45;&gt;plot_line</title>
<path fill="none" stroke="#cd853f" d="M276.5635,-196.351C286.3796,-191.0425 297.4474,-185.5521 308,-181.4 320.841,-176.3475 325.9384,-180.1036 338,-173.4 351.737,-165.7652 364.7332,-154.2262 375.0134,-143.6521"/>
<polygon fill="#cd853f" stroke="#cd853f" points="377.7157,-145.8867 381.9908,-136.1927 372.6035,-141.1049 377.7157,-145.8867"/>
</g>
</g>
</svg>

